<svg xmlns="http://www.w3.org/2000/svg" xmlns:xlink="http://www.w3.org/1999/xlink" id="Layer_1" x="0px" y="0px" viewBox="0 0 200 30" style="enable-background:new 0 0 200 30;" xml:space="preserve">
<style type="text/css">
	.st0{fill-rule:evenodd;clip-rule:evenodd;fill:#034EA1;}
	.st1{fill-rule:evenodd;clip-rule:evenodd;fill:#FFFFFF;}
	.st2{fill-rule:evenodd;clip-rule:evenodd;fill:url(#XMLID_4_);}
	.st3{fill-rule:evenodd;clip-rule:evenodd;fill:url(#XMLID_5_);}
	
		.st4{fill-rule:evenodd;clip-rule:evenodd;fill:#FFFFFF;stroke:#FFFFFF;stroke-width:1.2628;stroke-linecap:round;stroke-linejoin:round;stroke-miterlimit:10;}
</style>
<g id="XMLID_1_">
	<g id="XMLID_30_">
		<g id="XMLID_152_">
			<path id="XMLID_163_" class="st0" d="M32.48,3.71c10.14,0.5,16.2,6.33,13.48,12.98c-2.72,6.65-13.21,11.65-23.35,11.15     c-10.14-0.5-16.2-6.32-13.48-12.97C11.85,8.22,22.34,3.21,32.48,3.71L32.48,3.71z M32.28,4.46c-8.64-0.42-17.82,4.33-20.42,10.56     c-2.61,6.23,2.32,11.65,10.97,12.07c8.64,0.42,17.81-4.32,20.42-10.55C45.84,10.31,40.92,4.88,32.28,4.46z"></path>
			<path id="XMLID_160_" class="st1" d="M32.52,2.57c3.22,0.16,6.63,0.89,9.43,2.54c2.17,1.27,4.03,3.16,4.69,5.65     c0.46,1.74,0.25,3.5-0.42,5.15c-1.57,3.83-5.4,6.66-9.02,8.39c-4.45,2.12-9.66,3.16-14.58,2.92c-3.22-0.16-6.63-0.89-9.43-2.53     c-2.17-1.27-4.03-3.16-4.69-5.64c-0.46-1.74-0.25-3.5,0.42-5.15c1.57-3.83,5.4-6.66,9.02-8.39C22.38,3.37,27.59,2.33,32.52,2.57     L32.52,2.57z M32.28,3.83c-1.37-0.07-2.76,0-4.12,0.18c-3.47,0.46-6.96,1.68-9.92,3.55c-2.53,1.6-4.96,3.87-6.13,6.67     c-0.72,1.72-0.93,3.59-0.32,5.38c0.65,1.9,2.08,3.36,3.78,4.36c2.17,1.28,4.78,1.85,7.28,1.97c1.36,0.07,2.73,0,4.08-0.17     c3.47-0.45,6.98-1.67,9.95-3.54c2.54-1.6,4.97-3.87,6.15-6.68c0.72-1.73,0.93-3.59,0.32-5.38c-0.64-1.9-2.08-3.36-3.78-4.37     C37.39,4.52,34.78,3.95,32.28,3.83z"></path>
			<linearGradient id="XMLID_4_" gradientUnits="userSpaceOnUse" x1="27.5639" y1="16.0949" x2="27.5639" y2="22.7617">
				<stop offset="0" style="stop-color:#8DD7F7"></stop>
				<stop offset="1" style="stop-color:#0088CF"></stop>
			</linearGradient>
			<path id="XMLID_157_" class="st2" d="M32.5,2.83c10.14,0.5,16.2,6.33,13.48,12.98c-2.72,6.65-13.21,11.65-23.35,11.15     c-10.14-0.5-16.2-6.32-13.48-12.97C11.87,7.34,22.36,2.33,32.5,2.83L32.5,2.83z M32.29,3.58C23.65,3.16,14.48,7.9,11.87,14.14     c-2.6,6.23,2.32,11.65,10.97,12.07c8.64,0.42,17.81-4.32,20.42-10.55C45.86,9.42,40.94,4,32.29,3.58z"></path>
			<linearGradient id="XMLID_5_" gradientUnits="userSpaceOnUse" x1="28.1075" y1="16.1844" x2="28.1075" y2="25.6421">
				<stop offset="0" style="stop-color:#8DD7F7"></stop>
				<stop offset="1" style="stop-color:#0088CF"></stop>
			</linearGradient>
			<path id="XMLID_156_" class="st3" d="M31.5,2.24c0.23-0.2,0.49-0.36,0.78-0.49c0.64-0.28,1.37-0.37,2.07-0.37h10.93     c0.41,0,0.83,0.03,1.17,0.29c0.16,0.12,0.28,0.27,0.42,0.41c0.49,0.51,0.64,1.15,0.56,1.84c-0.09,0.71-0.4,1.32-0.95,1.78     c-0.17,0.14-0.33,0.3-0.52,0.41c-0.36,0.22-0.76,0.25-1.17,0.25H36.3l-0.87,7.23h6.55c0.43,0,0.84,0.04,1.2,0.29     c0.16,0.11,0.29,0.25,0.43,0.39c0.48,0.5,0.63,1.14,0.55,1.82c-0.08,0.7-0.39,1.3-0.94,1.74c-0.18,0.14-0.35,0.29-0.56,0.4     c-0.36,0.2-0.75,0.24-1.16,0.24h-6.65l-0.89,7.45c-0.07,0.56-0.18,1.08-0.52,1.54c-0.17,0.23-0.38,0.43-0.59,0.63     C32.21,28.7,31.44,29,30.55,29c-0.86,0-1.62-0.29-2.17-0.97c-0.16-0.2-0.32-0.39-0.43-0.62c-0.26-0.5-0.24-1.05-0.18-1.6     l2.31-19.28c-0.31,0.1-0.63,0.13-0.96,0.13h-5.97l-2.31,19.26c-0.07,0.55-0.18,1.08-0.51,1.54c-0.17,0.23-0.38,0.43-0.58,0.63     C19.12,28.7,18.34,29,17.45,29c-0.86,0-1.62-0.29-2.17-0.97c-0.16-0.2-0.32-0.39-0.43-0.62c-0.26-0.5-0.24-1.05-0.18-1.6     l2.29-19.16H11.1c-0.45,0-0.9-0.03-1.27-0.3C9.67,6.23,9.53,6.07,9.38,5.92C8.86,5.39,8.7,4.7,8.79,3.97     c0.09-0.77,0.44-1.42,1.05-1.9c0.19-0.15,0.38-0.32,0.6-0.44c0.37-0.21,0.78-0.25,1.2-0.25h18.02c0.45,0,0.9,0.03,1.28,0.3     c0.18,0.13,0.32,0.29,0.47,0.44C31.43,2.16,31.47,2.2,31.5,2.24z"></path>
			<path id="XMLID_155_" class="st1" d="M31.21,1.85c0.23-0.2,0.49-0.36,0.78-0.49C32.63,1.09,33.36,1,34.05,1h10.93     c0.41,0,0.83,0.03,1.17,0.29c0.16,0.12,0.28,0.27,0.42,0.41c0.49,0.51,0.64,1.15,0.56,1.84c-0.09,0.72-0.4,1.32-0.95,1.78     c-0.17,0.14-0.33,0.3-0.52,0.41c-0.36,0.22-0.76,0.25-1.17,0.25h-8.48l-0.87,7.23h6.55c0.43,0,0.84,0.04,1.2,0.29     c0.16,0.11,0.29,0.25,0.43,0.39c0.48,0.5,0.63,1.14,0.54,1.82c-0.08,0.7-0.39,1.3-0.94,1.74c-0.18,0.14-0.35,0.29-0.56,0.4     c-0.36,0.2-0.75,0.24-1.16,0.24h-6.65l-0.89,7.45c-0.07,0.56-0.18,1.08-0.52,1.54c-0.17,0.23-0.38,0.43-0.59,0.63     c-0.64,0.61-1.42,0.92-2.31,0.92c-0.86,0-1.62-0.29-2.17-0.97c-0.16-0.2-0.32-0.39-0.44-0.62c-0.26-0.5-0.24-1.05-0.18-1.6     l2.31-19.28c-0.31,0.1-0.63,0.13-0.96,0.13h-5.97l-2.31,19.26c-0.07,0.55-0.18,1.08-0.51,1.54c-0.17,0.23-0.37,0.43-0.58,0.63     c-0.64,0.61-1.42,0.92-2.3,0.92c-0.86,0-1.62-0.29-2.17-0.97c-0.16-0.2-0.32-0.39-0.43-0.62c-0.26-0.5-0.24-1.05-0.18-1.6     l2.29-19.16h-5.86c-0.45,0-0.89-0.03-1.27-0.3C9.37,5.84,9.24,5.69,9.09,5.54C8.56,5,8.4,4.32,8.49,3.59     c0.09-0.77,0.44-1.42,1.05-1.9c0.19-0.15,0.38-0.32,0.6-0.44C10.52,1.04,10.92,1,11.34,1h18.02c0.45,0,0.9,0.03,1.28,0.3     c0.18,0.13,0.32,0.29,0.47,0.44C31.14,1.78,31.18,1.82,31.21,1.85z"></path>
			<path id="XMLID_154_" class="st0" d="M28.83,5.83h-6.35l-2.35,19.65c-0.13,1.1-0.41,1.37-0.96,1.9c-0.55,0.53-1.22,0.8-2,0.8     c-0.78,0-1.39-0.27-1.83-0.81c-0.43-0.54-0.65-0.81-0.52-1.89l2.35-19.65h-6.35c-0.91,0-1.02-0.2-1.41-0.6     C9,4.83,8.85,4.3,8.92,3.64C9.01,2.96,9.3,2.42,9.81,2.03c0.51-0.4,0.65-0.59,1.53-0.59h18.02c0.92,0,1.04,0.2,1.44,0.61     c0.4,0.4,0.56,0.94,0.48,1.59C31.2,4.3,30.9,4.83,30.4,5.23C29.9,5.63,29.74,5.83,28.83,5.83z"></path>
			<path id="XMLID_153_" class="st0" d="M44.49,5.54h-8.87l-0.97,8.1h7.04c0.81,0,0.96,0.18,1.32,0.54c0.35,0.37,0.5,0.85,0.42,1.46     c-0.07,0.61-0.33,1.1-0.78,1.45c-0.45,0.36-0.65,0.54-1.44,0.54h-7.04l-0.94,7.84c-0.13,1.1-0.42,1.37-0.97,1.9     c-0.56,0.53-1.23,0.8-2.01,0.8c-0.78,0-1.39-0.27-1.83-0.81c-0.43-0.54-0.65-0.81-0.52-1.89L30.4,4.7     c0.09-0.77,0.28-1.39,0.57-1.87c0.28-0.48,0.68-0.84,1.19-1.06c0.51-0.22,1.14-0.33,1.89-0.33h10.93c0.85,0,0.92,0.19,1.28,0.56     c0.37,0.38,0.51,0.87,0.44,1.48c-0.08,0.62-0.34,1.12-0.8,1.5C45.45,5.36,45.34,5.54,44.49,5.54z"></path>
		</g>
		<path id="XMLID_151_" class="st4" d="M58.48,23.19l-2.3-11.57c-0.03-0.15-0.05-0.3-0.05-0.47c0-0.17,0.02-0.34,0.05-0.51    c0.1-0.49,0.35-0.9,0.76-1.23c0.4-0.33,0.86-0.49,1.37-0.49c0.37,0,0.66,0.11,0.85,0.34c0.2,0.23,0.34,0.61,0.43,1.15l1.47,8.6    l4.66-8.47c0.32-0.6,0.63-1.02,0.94-1.26c0.3-0.24,0.67-0.35,1.09-0.35c0.52,0,0.9,0.14,1.14,0.43c0.24,0.28,0.31,0.67,0.22,1.16    c-0.04,0.2-0.1,0.39-0.18,0.6c-0.08,0.21-0.18,0.4-0.29,0.6L61.9,23.05c-0.3,0.51-0.61,0.88-0.93,1.1    c-0.31,0.22-0.68,0.33-1.11,0.33c-0.39,0-0.7-0.1-0.91-0.3C58.74,23.98,58.58,23.65,58.48,23.19z"></path>
		<path id="XMLID_148_" class="st4" d="M70.02,21.34l-0.82,1.53c-0.27,0.5-0.57,0.89-0.9,1.16c-0.33,0.27-0.69,0.4-1.06,0.4    c-0.48,0-0.84-0.16-1.09-0.47c-0.25-0.32-0.32-0.71-0.22-1.19c0.04-0.19,0.09-0.37,0.15-0.54c0.06-0.17,0.13-0.32,0.22-0.46    l6.07-10.68c0.44-0.77,0.91-1.33,1.41-1.7c0.5-0.36,1.06-0.54,1.68-0.54c0.59,0,1.07,0.17,1.43,0.51c0.36,0.34,0.6,0.84,0.7,1.49    l1.67,10.86c0.03,0.23,0.04,0.44,0.05,0.61c0,0.18-0.01,0.34-0.04,0.48c-0.1,0.48-0.33,0.87-0.71,1.17    c-0.38,0.3-0.82,0.45-1.31,0.45c-0.44,0-0.78-0.14-1.03-0.41c-0.24-0.28-0.39-0.7-0.44-1.27l-0.15-1.4H70.02L70.02,21.34z     M71.63,18.17h3.61l-0.62-5.61L71.63,18.17z"></path>
		<path id="XMLID_147_" class="st4" d="M82.84,11.32c0.16-0.82,0.43-1.44,0.79-1.84c0.36-0.4,0.84-0.61,1.42-0.61    c0.58,0,0.97,0.2,1.18,0.61c0.2,0.4,0.22,1.02,0.06,1.84L84.36,21h2.91c0.83,0,1.42,0.13,1.77,0.39c0.35,0.27,0.47,0.66,0.36,1.2    c-0.11,0.54-0.39,0.94-0.84,1.21c-0.45,0.26-1.1,0.39-1.93,0.39h-4.02c-0.89,0-1.48-0.15-1.75-0.46c-0.27-0.3-0.33-0.88-0.16-1.72    L82.84,11.32z"></path>
		<path id="XMLID_45_" class="st4" d="M91.01,17.69l1.27-6.37c0.16-0.82,0.43-1.44,0.79-1.84c0.36-0.4,0.84-0.61,1.42-0.61    c0.58,0,0.97,0.2,1.18,0.61c0.2,0.4,0.22,1.02,0.06,1.84l-1.2,5.99c-0.27,1.34-0.21,2.34,0.16,3.02c0.38,0.67,1.07,1.01,2.08,1.01    c1,0,1.83-0.34,2.47-1.01c0.65-0.68,1.1-1.68,1.37-3.02l1.2-5.99c0.16-0.82,0.43-1.44,0.79-1.84c0.37-0.4,0.84-0.61,1.42-0.61    c0.58,0,0.97,0.2,1.18,0.61c0.2,0.4,0.22,1.02,0.06,1.84l-1.27,6.37c-0.44,2.2-1.35,3.9-2.74,5.12c-1.38,1.22-3.09,1.82-5.13,1.82    c-2.05,0-3.52-0.61-4.42-1.82C90.8,21.59,90.57,19.89,91.01,17.69z"></path>
		<path id="XMLID_145_" class="st4" d="M114.64,9.06c0.82,0,1.4,0.13,1.76,0.4c0.35,0.27,0.48,0.67,0.37,1.22    c-0.11,0.54-0.39,0.93-0.85,1.2c-0.46,0.26-1.1,0.39-1.92,0.39h-2.8l-0.54,2.7h2.42c0.82,0,1.41,0.13,1.77,0.39    c0.35,0.27,0.47,0.67,0.37,1.21c-0.11,0.54-0.39,0.94-0.85,1.2c-0.46,0.26-1.1,0.39-1.92,0.39h-2.42L109.45,21h2.91    c0.83,0,1.42,0.13,1.77,0.39c0.35,0.27,0.47,0.66,0.36,1.2c-0.11,0.54-0.39,0.94-0.84,1.21c-0.45,0.26-1.1,0.39-1.93,0.39h-4.02    c-0.89,0-1.48-0.15-1.75-0.46c-0.27-0.3-0.33-0.88-0.16-1.72l2.1-10.53c0.18-0.92,0.49-1.56,0.91-1.9    c0.42-0.35,1.08-0.52,1.95-0.52H114.64z"></path>
		<path id="XMLID_43_" class="st4" d="M118.03,19.74c-0.52,0-0.9-0.13-1.14-0.38c-0.24-0.26-0.31-0.62-0.22-1.08    c0.09-0.46,0.31-0.82,0.65-1.07c0.34-0.25,0.78-0.38,1.31-0.38h4.32c0.52,0,0.9,0.13,1.14,0.39c0.24,0.26,0.32,0.62,0.23,1.08    c-0.09,0.47-0.31,0.83-0.65,1.07c-0.34,0.24-0.78,0.37-1.33,0.37H118.03z"></path>
		<path id="XMLID_42_" class="st4" d="M124.84,21.55l3.91-10.32c0.32-0.85,0.7-1.46,1.14-1.82c0.43-0.37,0.99-0.55,1.67-0.55    c0.64,0,1.13,0.17,1.46,0.51c0.33,0.34,0.51,0.85,0.55,1.54l0.49,9.04l3.96-9.06c0.29-0.67,0.67-1.18,1.13-1.51    c0.46-0.34,1.01-0.51,1.63-0.51c0.72,0,1.22,0.19,1.53,0.58c0.31,0.38,0.44,1.02,0.41,1.91l-0.39,10.41    c-0.01,0.15-0.01,0.3-0.03,0.44c-0.01,0.14-0.03,0.27-0.05,0.38c-0.11,0.56-0.36,1-0.74,1.32c-0.38,0.33-0.84,0.49-1.36,0.49    c-0.49,0-0.84-0.17-1.05-0.5c-0.22-0.33-0.3-0.84-0.25-1.51l0.72-9.04c-1.56,3.61-2.69,6.17-3.4,7.67c-0.7,1.5-1.2,2.42-1.49,2.77    c-0.18,0.22-0.4,0.38-0.64,0.47c-0.25,0.1-0.55,0.14-0.93,0.14c-0.58,0-1-0.13-1.25-0.39c-0.25-0.27-0.4-0.71-0.43-1.34    l-0.37-9.32l-2.94,8.82c-0.27,0.78-0.58,1.35-0.94,1.71c-0.36,0.35-0.8,0.53-1.31,0.53c-0.51,0-0.88-0.16-1.13-0.49    c-0.24-0.33-0.31-0.77-0.2-1.32c0.03-0.13,0.07-0.28,0.12-0.46C124.69,21.95,124.76,21.76,124.84,21.55z"></path>
		<path id="XMLID_38_" class="st4" d="M146.61,21.34l-0.82,1.53c-0.27,0.5-0.57,0.89-0.9,1.16c-0.33,0.27-0.69,0.4-1.06,0.4    c-0.48,0-0.84-0.16-1.09-0.47c-0.25-0.32-0.32-0.71-0.22-1.19c0.04-0.19,0.09-0.37,0.15-0.54c0.06-0.17,0.13-0.32,0.22-0.46    l6.07-10.68c0.44-0.77,0.91-1.33,1.41-1.7c0.5-0.36,1.06-0.54,1.68-0.54c0.59,0,1.07,0.17,1.43,0.51c0.36,0.34,0.6,0.84,0.7,1.49    l1.67,10.86c0.03,0.23,0.04,0.44,0.05,0.61c0,0.18-0.01,0.34-0.04,0.48c-0.1,0.48-0.33,0.87-0.71,1.17    c-0.38,0.3-0.82,0.45-1.31,0.45c-0.44,0-0.78-0.14-1.03-0.41c-0.24-0.28-0.39-0.7-0.45-1.27l-0.15-1.4H146.61L146.61,21.34z     M148.23,18.17h3.61l-0.62-5.61L148.23,18.17z"></path>
		<path id="XMLID_33_" class="st4" d="M161.51,18.21l-0.74,3.72c-0.16,0.83-0.43,1.44-0.79,1.84c-0.36,0.4-0.84,0.6-1.42,0.6    c-0.58,0-0.97-0.2-1.18-0.6c-0.2-0.4-0.22-1.02-0.06-1.84l2.09-10.45c0.18-0.92,0.49-1.56,0.91-1.9c0.42-0.35,1.08-0.52,1.95-0.52    h2.68c1.79,0,3.12,0.43,3.98,1.27c0.86,0.85,1.14,2,0.85,3.45c-0.22,1.08-0.71,1.98-1.5,2.71c-0.79,0.72-1.76,1.18-2.93,1.38    l2.12,3.02c0.27,0.38,0.45,0.73,0.56,1.06c0.1,0.33,0.13,0.63,0.07,0.91c-0.09,0.46-0.32,0.84-0.7,1.15    c-0.37,0.31-0.79,0.47-1.26,0.47c-0.3,0-0.58-0.09-0.82-0.28c-0.24-0.18-0.5-0.5-0.78-0.95L161.51,18.21L161.51,18.21z     M161.97,15.91h1.59c0.7,0,1.27-0.16,1.72-0.49c0.44-0.33,0.73-0.79,0.85-1.38c0.12-0.57,0.02-1.02-0.29-1.34    c-0.31-0.32-0.81-0.47-1.5-0.47h-1.63L161.97,15.91z"></path>
		<path id="XMLID_31_" class="st4" d="M173.91,12.27h-1.27c-0.83,0-1.42-0.13-1.77-0.39c-0.35-0.27-0.47-0.66-0.36-1.2    c0.11-0.55,0.39-0.95,0.85-1.22c0.46-0.27,1.1-0.4,1.92-0.4h5.99c0.82,0,1.4,0.13,1.75,0.4c0.35,0.27,0.48,0.67,0.37,1.22    c-0.11,0.54-0.39,0.93-0.85,1.2c-0.46,0.26-1.1,0.39-1.92,0.39h-1.28l-1.93,9.66c-0.16,0.83-0.43,1.44-0.79,1.84    c-0.36,0.4-0.84,0.6-1.42,0.6c-0.58,0-0.97-0.2-1.18-0.6c-0.2-0.4-0.22-1.01-0.06-1.84L173.91,12.27z"></path>
	</g>
	<polygon id="XMLID_29_" class="st4" points="184.65,10.09 184.65,6.37 183.33,6.37 183.33,5.61 186.87,5.61 186.87,6.37    185.56,6.37 185.56,10.09  "></polygon>
	<polygon id="XMLID_28_" class="st4" points="187.45,10.09 187.45,5.61 188.81,5.61 189.61,8.66 190.4,5.61 191.76,5.61    191.76,10.09 190.92,10.09 190.92,6.56 190.04,10.09 189.17,10.09 188.29,6.56 188.29,10.09  "></polygon>
	<path id="XMLID_26_" class="st0" d="M58.48,23.19l-2.3-11.57c-0.03-0.15-0.05-0.3-0.05-0.47c0-0.17,0.02-0.34,0.05-0.51   c0.1-0.49,0.35-0.9,0.76-1.23c0.4-0.33,0.86-0.49,1.37-0.49c0.37,0,0.66,0.11,0.85,0.34c0.2,0.23,0.34,0.61,0.43,1.15l1.47,8.6   l4.66-8.47c0.32-0.6,0.63-1.02,0.94-1.26c0.3-0.24,0.67-0.35,1.09-0.35c0.52,0,0.9,0.14,1.14,0.43c0.24,0.28,0.31,0.67,0.22,1.16   c-0.04,0.2-0.1,0.39-0.18,0.6c-0.08,0.21-0.18,0.4-0.29,0.6L61.9,23.05c-0.3,0.51-0.61,0.88-0.93,1.1   c-0.31,0.22-0.68,0.33-1.11,0.33c-0.39,0-0.7-0.1-0.91-0.3C58.74,23.98,58.58,23.65,58.48,23.19z"></path>
	<path id="XMLID_103_" class="st0" d="M70.02,21.34l-0.82,1.53c-0.27,0.5-0.57,0.89-0.9,1.16c-0.33,0.27-0.69,0.4-1.06,0.4   c-0.48,0-0.84-0.16-1.09-0.47c-0.25-0.32-0.32-0.71-0.22-1.19c0.04-0.19,0.09-0.37,0.15-0.54c0.06-0.17,0.13-0.32,0.22-0.46   l6.07-10.68c0.44-0.77,0.91-1.33,1.41-1.7c0.5-0.36,1.06-0.54,1.68-0.54c0.59,0,1.07,0.17,1.43,0.51c0.36,0.34,0.6,0.84,0.7,1.49   l1.67,10.86c0.03,0.23,0.04,0.44,0.05,0.61c0,0.18-0.01,0.34-0.04,0.48c-0.1,0.48-0.33,0.87-0.71,1.17   c-0.38,0.3-0.82,0.45-1.31,0.45c-0.44,0-0.78-0.14-1.03-0.41c-0.24-0.28-0.39-0.7-0.44-1.27l-0.15-1.4H70.02L70.02,21.34z    M71.63,18.17h3.61l-0.62-5.61L71.63,18.17z"></path>
	<path id="XMLID_102_" class="st0" d="M82.84,11.32c0.16-0.82,0.43-1.44,0.79-1.84c0.36-0.4,0.84-0.61,1.42-0.61   c0.58,0,0.97,0.2,1.18,0.61c0.2,0.4,0.22,1.02,0.06,1.84L84.36,21h2.91c0.83,0,1.42,0.13,1.77,0.39c0.35,0.27,0.47,0.66,0.36,1.2   c-0.11,0.54-0.39,0.94-0.84,1.21c-0.45,0.26-1.1,0.39-1.93,0.39h-4.02c-0.89,0-1.48-0.15-1.75-0.46c-0.27-0.3-0.33-0.88-0.16-1.72   L82.84,11.32z"></path>
	<path id="XMLID_58_" class="st0" d="M91.01,17.69l1.27-6.37c0.16-0.82,0.43-1.44,0.79-1.84c0.36-0.4,0.84-0.61,1.42-0.61   c0.58,0,0.97,0.2,1.18,0.61c0.2,0.4,0.22,1.02,0.06,1.84l-1.2,5.99c-0.27,1.34-0.21,2.34,0.16,3.02c0.38,0.67,1.07,1.01,2.08,1.01   c1,0,1.83-0.34,2.47-1.01c0.65-0.68,1.1-1.68,1.37-3.02l1.2-5.99c0.16-0.82,0.43-1.44,0.79-1.84c0.37-0.4,0.84-0.61,1.42-0.61   c0.58,0,0.97,0.2,1.18,0.61c0.2,0.4,0.22,1.02,0.06,1.84l-1.27,6.37c-0.44,2.2-1.35,3.9-2.74,5.12c-1.38,1.22-3.09,1.82-5.13,1.82   c-2.05,0-3.52-0.61-4.42-1.82C90.8,21.59,90.57,19.89,91.01,17.69z"></path>
	<path id="XMLID_56_" class="st0" d="M114.64,9.06c0.82,0,1.4,0.13,1.76,0.4c0.35,0.27,0.48,0.67,0.37,1.22   c-0.11,0.54-0.39,0.93-0.85,1.2c-0.46,0.26-1.1,0.39-1.92,0.39h-2.8l-0.54,2.7h2.42c0.82,0,1.41,0.13,1.77,0.39   c0.35,0.27,0.47,0.67,0.37,1.21c-0.11,0.54-0.39,0.94-0.85,1.2c-0.46,0.26-1.1,0.39-1.92,0.39h-2.42L109.45,21h2.91   c0.83,0,1.42,0.13,1.77,0.39c0.35,0.27,0.47,0.66,0.36,1.2c-0.11,0.54-0.39,0.94-0.84,1.21c-0.45,0.26-1.1,0.39-1.93,0.39h-4.02   c-0.89,0-1.48-0.15-1.75-0.46c-0.27-0.3-0.33-0.88-0.16-1.72l2.1-10.53c0.18-0.92,0.49-1.56,0.91-1.9   c0.42-0.35,1.08-0.52,1.95-0.52H114.64z"></path>
	<path id="XMLID_47_" class="st0" d="M118.03,19.74c-0.52,0-0.9-0.13-1.14-0.38c-0.24-0.26-0.31-0.62-0.22-1.08   c0.09-0.46,0.31-0.82,0.65-1.07c0.34-0.25,0.78-0.38,1.31-0.38h4.32c0.52,0,0.9,0.13,1.14,0.39c0.24,0.26,0.32,0.62,0.23,1.08   c-0.09,0.47-0.31,0.83-0.65,1.07c-0.34,0.24-0.78,0.37-1.33,0.37H118.03z"></path>
	<path id="XMLID_46_" class="st0" d="M124.84,21.55l3.91-10.32c0.32-0.85,0.7-1.46,1.14-1.82c0.43-0.37,0.99-0.55,1.67-0.55   c0.64,0,1.13,0.17,1.46,0.51c0.33,0.34,0.51,0.85,0.55,1.54l0.49,9.04l3.96-9.06c0.29-0.67,0.67-1.18,1.13-1.51   c0.46-0.34,1.01-0.51,1.63-0.51c0.72,0,1.22,0.19,1.53,0.58c0.31,0.38,0.44,1.02,0.41,1.91l-0.39,10.41   c-0.01,0.15-0.01,0.3-0.03,0.44c-0.01,0.14-0.03,0.27-0.05,0.38c-0.11,0.56-0.36,1-0.74,1.32c-0.38,0.33-0.84,0.49-1.36,0.49   c-0.49,0-0.84-0.17-1.05-0.5c-0.22-0.33-0.3-0.84-0.25-1.51l0.72-9.04c-1.56,3.61-2.69,6.17-3.4,7.67c-0.7,1.5-1.2,2.42-1.49,2.77   c-0.18,0.22-0.4,0.38-0.64,0.47c-0.25,0.1-0.55,0.14-0.93,0.14c-0.58,0-1-0.13-1.25-0.39c-0.25-0.27-0.4-0.71-0.43-1.34l-0.37-9.32   l-2.94,8.82c-0.27,0.78-0.58,1.35-0.94,1.71c-0.36,0.35-0.8,0.53-1.31,0.53c-0.51,0-0.88-0.16-1.13-0.49   c-0.24-0.33-0.31-0.77-0.2-1.32c0.03-0.13,0.07-0.28,0.12-0.46C124.69,21.95,124.76,21.76,124.84,21.55z"></path>
	<path id="XMLID_22_" class="st0" d="M146.61,21.34l-0.82,1.53c-0.27,0.5-0.57,0.89-0.9,1.16c-0.33,0.27-0.69,0.4-1.06,0.4   c-0.48,0-0.84-0.16-1.09-0.47c-0.25-0.32-0.32-0.71-0.22-1.19c0.04-0.19,0.09-0.37,0.15-0.54c0.06-0.17,0.13-0.32,0.22-0.46   l6.07-10.68c0.44-0.77,0.91-1.33,1.41-1.7c0.5-0.36,1.06-0.54,1.68-0.54c0.59,0,1.07,0.17,1.43,0.51c0.36,0.34,0.6,0.84,0.7,1.49   l1.67,10.86c0.03,0.23,0.04,0.44,0.05,0.61c0,0.18-0.01,0.34-0.04,0.48c-0.1,0.48-0.33,0.87-0.71,1.17   c-0.38,0.3-0.82,0.45-1.31,0.45c-0.44,0-0.78-0.14-1.03-0.41c-0.24-0.28-0.39-0.7-0.45-1.27l-0.15-1.4H146.61L146.61,21.34z    M148.23,18.17h3.61l-0.62-5.61L148.23,18.17z"></path>
	<path id="XMLID_19_" class="st0" d="M161.51,18.21l-0.74,3.72c-0.16,0.83-0.43,1.44-0.79,1.84c-0.36,0.4-0.84,0.6-1.42,0.6   c-0.58,0-0.97-0.2-1.18-0.6c-0.2-0.4-0.22-1.02-0.06-1.84l2.09-10.45c0.18-0.92,0.49-1.56,0.91-1.9c0.42-0.35,1.08-0.52,1.95-0.52   h2.68c1.79,0,3.12,0.43,3.98,1.27c0.86,0.85,1.14,2,0.85,3.45c-0.22,1.08-0.71,1.98-1.5,2.71c-0.79,0.72-1.76,1.18-2.93,1.38   l2.12,3.02c0.27,0.38,0.45,0.73,0.56,1.06c0.1,0.33,0.13,0.63,0.07,0.91c-0.09,0.46-0.32,0.84-0.7,1.15   c-0.37,0.31-0.79,0.47-1.26,0.47c-0.3,0-0.58-0.09-0.82-0.28c-0.24-0.18-0.5-0.5-0.78-0.95L161.51,18.21L161.51,18.21z    M161.97,15.91h1.59c0.7,0,1.27-0.16,1.72-0.49c0.44-0.33,0.73-0.79,0.85-1.38c0.12-0.57,0.02-1.02-0.29-1.34   c-0.31-0.32-0.81-0.47-1.5-0.47h-1.63L161.97,15.91z"></path>
	<path id="XMLID_17_" class="st0" d="M173.91,12.27h-1.27c-0.83,0-1.42-0.13-1.77-0.39c-0.35-0.27-0.47-0.66-0.36-1.2   c0.11-0.55,0.39-0.95,0.85-1.22c0.46-0.27,1.1-0.4,1.92-0.4h5.99c0.82,0,1.4,0.13,1.75,0.4c0.35,0.27,0.48,0.67,0.37,1.22   c-0.11,0.54-0.39,0.93-0.85,1.2c-0.46,0.26-1.1,0.39-1.92,0.39h-1.28l-1.93,9.66c-0.16,0.83-0.43,1.44-0.79,1.84   c-0.36,0.4-0.84,0.6-1.42,0.6c-0.58,0-0.97-0.2-1.18-0.6c-0.2-0.4-0.22-1.01-0.06-1.84L173.91,12.27z"></path>
	<polygon id="XMLID_15_" class="st0" points="184.65,10.09 184.65,6.37 183.33,6.37 183.33,5.61 186.87,5.61 186.87,6.37    185.56,6.37 185.56,10.09  "></polygon>
	<polygon id="XMLID_2_" class="st0" points="187.45,10.09 187.45,5.61 188.81,5.61 189.61,8.66 190.4,5.61 191.76,5.61    191.76,10.09 190.92,10.09 190.92,6.56 190.04,10.09 189.17,10.09 188.29,6.56 188.29,10.09  "></polygon>
</g>
</svg>